<svg width="239" height="71" viewBox="0 0 239 71" fill="none" xmlns="http://www.w3.org/2000/svg">
    <path
        d="M238.822 6.961C238.822 2.916 234.873 0 230.641 0C221.329 0 215.497 7.055 215.497 27.652V29.233C215.497 29.516 215.309 29.612 214.839 29.612H208.443C208.163 29.612 208.163 30.287 208.443 30.287H214.839C215.309 30.287 215.497 30.381 215.497 30.568V68.955C215.497 69.236 215.309 69.33 214.839 69.33H209.761C209.478 69.33 209.478 69.976 209.761 69.976H228.665C228.853 69.976 228.853 69.33 228.665 69.33H223.493C223.116 69.33 222.929 69.236 222.929 68.955V30.568C222.929 30.38 223.117 30.287 223.493 30.287H231.298C231.486 30.287 231.486 29.612 231.298 29.612H223.493C223.116 29.612 222.929 29.516 222.929 29.233V11.662C222.929 3.103 226.032 0.564001 228.665 0.564001C230.642 0.564001 231.958 1.882 231.958 3.668C231.958 6.113 230.829 6.02 230.829 8.088C230.829 9.877 232.052 11.287 234.778 11.287C237.131 11.287 238.822 9.219 238.822 6.961ZM212.771 6.961C212.771 2.916 208.824 0 204.59 0C195.278 0 189.447 7.055 189.447 27.652V29.233C189.447 29.516 189.259 29.612 188.791 29.612H182.393C182.113 29.612 182.113 30.287 182.393 30.287H188.791C189.26 30.287 189.447 30.381 189.447 30.568V68.948C189.447 69.229 189.259 69.323 188.791 69.323H183.709C183.428 69.323 183.428 69.975 183.709 69.975H202.613C202.801 69.975 202.801 69.323 202.613 69.323H197.439C197.062 69.323 196.877 69.229 196.877 68.948V30.568C196.877 30.38 197.064 30.287 197.439 30.287H205.248C205.436 30.287 205.436 29.612 205.248 29.612H197.439C197.062 29.612 196.877 29.516 196.877 29.233V11.662C196.877 3.103 199.98 0.564001 202.613 0.564001C204.59 0.564001 205.904 1.882 205.904 3.668C205.904 6.113 204.776 6.02 204.776 8.088C204.776 9.877 205.999 11.287 208.727 11.287C211.079 11.287 212.771 9.219 212.771 6.961ZM167.534 63.487C167.534 66.966 163.21 70.071 158.597 70.071C155.681 70.071 151.732 69.038 151.732 60.946C151.732 52.296 155.118 49.941 158.22 49.284C160.949 48.814 165.462 48.814 167.532 47.403L167.534 63.487ZM181.079 67.155C181.173 66.967 180.796 66.874 180.796 67.06C180.419 67.907 179.103 69.413 177.409 69.413C175.999 69.413 174.964 68.472 174.964 66.309V46.086C174.964 34.33 169.792 29.063 160.198 29.063C152.862 29.063 149.193 33.106 149.193 36.211C149.193 38.186 150.228 40.254 152.862 40.254C155.681 40.254 156.81 38.656 156.81 37.059C156.81 35.647 156.155 35.176 156.155 33.672C156.155 30.662 157.845 29.438 160.198 29.438C163.585 29.438 167.534 31.508 167.534 39.032V46.18C167.534 48.157 161.607 48.532 156.435 49.002C152.767 49.379 144.491 51.072 144.491 60.945C144.491 68.377 150.698 70.727 156.905 70.727C161.888 70.727 166.781 68.752 168.005 64.706C168.663 68.185 170.827 70.727 174.87 70.727C178.35 70.728 180.608 68.847 181.079 67.155ZM141.2 62.547C141.2 62.358 140.917 62.264 140.823 62.358C139.694 66.967 137.155 69.413 134.616 69.413C132.923 69.413 131.888 68.473 131.888 66.684V30.662C131.888 30.474 132.076 30.287 132.544 30.287H140.257C140.54 30.287 140.54 29.612 140.257 29.612H132.544C132.075 29.612 131.888 29.516 131.888 29.329V14.39C131.888 14.201 131.605 14.201 131.511 14.39C130.665 17.023 128.219 18.152 124.457 18.716V29.328C124.457 29.516 124.269 29.611 123.892 29.611H117.403C117.215 29.611 117.215 30.286 117.403 30.286H123.892C124.269 30.286 124.457 30.474 124.457 30.661V61.602C124.457 67.717 127.09 70.821 132.169 70.821C137.342 70.823 139.975 67.342 141.2 62.547ZM115.241 57.655C115.241 51.636 110.538 47.78 103.388 45.521C96.5225 43.452 92.8545 40.821 92.8545 35.927C92.8545 31.695 95.6765 29.437 100.286 29.437C104.894 29.437 109.974 32.73 109.974 39.314C109.974 39.502 110.351 39.502 110.351 39.314V28.685C110.351 28.591 109.974 28.497 109.974 28.685C109.974 29.531 109.316 30.003 107.998 30.003C103.954 30.003 103.39 29.062 100.286 29.062C94.5505 29.062 89.3765 33.671 89.3765 41.101C89.3765 47.308 93.8905 50.13 100.286 52.294C106.87 54.552 111.008 56.9 111.008 62.169C111.008 67.718 107.246 70.443 102.073 70.443C94.0805 70.443 88.1535 63.765 88.4345 56.9C88.4345 56.712 88.0585 56.712 88.0585 56.9L87.5885 70.068C87.5885 70.256 87.8705 70.349 87.9645 70.068C88.1525 69.41 89.5625 68.279 91.2565 68.279C94.8305 68.279 96.8985 70.82 102.071 70.82C111.007 70.823 115.241 65.273 115.241 57.655ZM83.7335 69.976C83.9215 69.976 83.9215 69.314 83.7335 69.314H78.5595C78.0895 69.314 77.9025 69.22 77.9025 68.939V1.129C77.9025 0.940002 77.9025 0.846001 77.7145 0.846001H64.7345C64.5465 0.846001 64.5465 1.502 64.7345 1.502H69.9095C70.2855 1.502 70.5665 1.596 70.5665 1.877V68.939C70.5665 69.22 70.2855 69.314 69.9095 69.314H64.7345C64.5465 69.314 64.5465 69.976 64.7345 69.976H83.7335ZM49.5915 63.487C49.5915 66.966 45.2655 70.071 40.6565 70.071C37.7405 70.071 33.7915 69.038 33.7915 60.946C33.7915 52.296 37.1775 49.941 40.2805 49.284C43.0095 48.814 47.5215 48.814 49.5915 47.403V63.487ZM63.1355 67.155C63.2295 66.967 62.8535 66.874 62.8535 67.06C62.4775 67.907 61.1635 69.413 59.4675 69.413C58.0575 69.413 57.0215 68.472 57.0215 66.309V46.086C57.0215 34.33 51.8495 29.063 42.2555 29.063C34.9195 29.063 31.2515 33.106 31.2515 36.211C31.2515 38.186 32.2855 40.254 34.9195 40.254C37.7405 40.254 38.8695 38.656 38.8695 37.059C38.8695 35.647 38.2115 35.176 38.2115 33.672C38.2115 30.662 39.9045 29.438 42.2555 29.438C45.6415 29.438 49.5915 31.508 49.5915 39.032V46.18C49.5915 48.157 43.6675 48.532 38.4935 49.002C34.8245 49.379 26.5495 51.072 26.5495 60.945C26.5495 68.377 32.7575 70.727 38.9635 70.727C43.9485 70.727 48.8395 68.752 50.0615 64.706C50.7215 68.185 52.8835 70.727 56.9275 70.727C60.4075 70.728 62.6655 68.847 63.1355 67.155ZM30.5935 6.961C30.5935 2.916 26.6435 0 22.4115 0C13.0995 0 7.2655 7.055 7.2655 27.652V29.233C7.2655 29.516 7.0775 29.612 6.6075 29.612H0.2115C-0.0705 29.612 -0.0705 30.287 0.2115 30.287H6.6075C7.0795 30.287 7.2655 30.381 7.2655 30.568V68.955C7.2655 69.236 7.0775 69.33 6.6075 69.33H1.5305C1.2495 69.33 1.2495 69.976 1.5305 69.976H20.4335C20.6215 69.976 20.6215 69.33 20.4335 69.33H15.2615C14.8855 69.33 14.6965 69.236 14.6965 68.955V30.568C14.6965 30.38 14.8855 30.287 15.2615 30.287H23.0685C23.2565 30.287 23.2565 29.536 23.0685 29.612H15.2615C14.8855 29.536 14.6965 29.516 14.6965 29.233V11.662C14.6965 3.103 17.8005 0.564001 20.4335 0.564001C22.4115 0.564001 23.7255 1.882 23.7255 3.668C23.7255 6.113 22.5975 6.02 22.5975 8.088C22.5975 9.877 23.8205 11.287 26.5475 11.287C28.9015 11.287 30.5935 9.219 30.5935 6.961Z"
        fill="black" fill-opacity="0.8"/>
</svg>
